{
	"asset":{
		"generator":"Khronos glTF Blender I/O v3.5.30",
		"version":"2.0"
	},
	"scene":0,
	"scenes":[
		{
			"name":"Scene",
			"nodes":[
				0
			]
		}
	],
	"nodes":[
		{
			"mesh":0,
			"name":"kamiina"
		}
	],
	"materials":[
		{
			"doubleSided":true,
			"name":"BC_kamiina",
			"pbrMetallicRoughness":{
				"baseColorTexture":{
					"index":0
				},
				"metallicFactor":0,
				"roughnessFactor":0.5
			}
		}
	],
	"meshes":[
		{
			"name":"Cube.002",
			"primitives":[
				{
					"attributes":{
						"POSITION":0,
						"TEXCOORD_0":1,
						"NORMAL":2
					},
					"indices":3,
					"material":0
				}
			]
		}
	],
	"textures":[
		{
			"sampler":0,
			"source":0
		}
	],
	"images":[
		{
			"bufferView":4,
			"mimeType":"image/png",
			"name":"BC_kamiina"
		}
	],
	"accessors":[
		{
			"bufferView":0,
			"componentType":5126,
			"count":490,
			"max":[
				2.2004361152648926,
				13.77147102355957,
				2.2172341346740723
			],
			"min":[
				-2.3081488609313965,
				-0.006258726119995117,
				-2.291350841522217
			],
			"type":"VEC3"
		},
		{
			"bufferView":1,
			"componentType":5126,
			"count":490,
			"type":"VEC2"
		},
		{
			"bufferView":2,
			"componentType":5126,
			"count":490,
			"type":"VEC3"
		},
		{
			"bufferView":3,
			"componentType":5123,
			"count":1188,
			"type":"SCALAR"
		}
	],
	"bufferViews":[
		{
			"buffer":0,
			"byteLength":5880,
			"byteOffset":0,
			"target":34962
		},
		{
			"buffer":0,
			"byteLength":3920,
			"byteOffset":5880,
			"target":34962
		},
		{
			"buffer":0,
			"byteLength":5880,
			"byteOffset":9800,
			"target":34962
		},
		{
			"buffer":0,
			"byteLength":2376,
			"byteOffset":15680,
			"target":34963
		},
		{
			"buffer":0,
			"byteLength":48219,
			"byteOffset":18056
		}
	],
	"samplers":[
		{
			"magFilter":9729,
			"minFilter":9987
		}
	],
	"buffers":[
		{
			"byteLength":66276,
			"uri":"data:application/octet-stream;base64,"
		}
	]
}
