{
	"asset":{
		"generator":"Khronos glTF Blender I/O v3.5.30",
		"version":"2.0"
	},
	"scene":0,
	"scenes":[
		{
			"name":"Scene",
			"nodes":[
				0
			]
		}
	],
	"nodes":[
		{
			"mesh":0,
			"name":"kuksa"
		}
	],
	"materials":[
		{
			"doubleSided":true,
			"name":"BC_Kuksa",
			"pbrMetallicRoughness":{
				"baseColorTexture":{
					"index":0
				},
				"metallicFactor":0,
				"roughnessFactor":0.5
			}
		}
	],
	"meshes":[
		{
			"name":"Cube",
			"primitives":[
				{
					"attributes":{
						"POSITION":0,
						"TEXCOORD_0":1,
						"NORMAL":2
					},
					"indices":3,
					"material":0
				}
			]
		}
	],
	"textures":[
		{
			"sampler":0,
			"source":0
		}
	],
	"images":[
		{
			"bufferView":4,
			"mimeType":"image/png",
			"name":"BC_kuksa"
		}
	],
	"accessors":[
		{
			"bufferView":0,
			"componentType":5126,
			"count":176,
			"max":[
				1.0609841346740723,
				0.36315256357192993,
				0.5259388089179993
			],
			"min":[
				-0.6757935285568237,
				-0.3986939787864685,
				-0.5259388089179993
			],
			"type":"VEC3"
		},
		{
			"bufferView":1,
			"componentType":5126,
			"count":176,
			"type":"VEC2"
		},
		{
			"bufferView":2,
			"componentType":5126,
			"count":176,
			"type":"VEC3"
		},
		{
			"bufferView":3,
			"componentType":5123,
			"count":384,
			"type":"SCALAR"
		}
	],
	"bufferViews":[
		{
			"buffer":0,
			"byteLength":2112,
			"byteOffset":0,
			"target":34962
		},
		{
			"buffer":0,
			"byteLength":1408,
			"byteOffset":2112,
			"target":34962
		},
		{
			"buffer":0,
			"byteLength":2112,
			"byteOffset":3520,
			"target":34962
		},
		{
			"buffer":0,
			"byteLength":768,
			"byteOffset":5632,
			"target":34963
		},
		{
			"buffer":0,
			"byteLength":143406,
			"byteOffset":6400
		}
	],
	"samplers":[
		{
			"magFilter":9729,
			"minFilter":9987
		}
	],
	"buffers":[
		{
			"byteLength":149808,
			"uri":"data:application/octet-stream;base64,"
		}
	]
}
