{
	"asset":{
		"generator":"Khronos glTF Blender I/O v3.5.30",
		"version":"2.0"
	},
	"scene":0,
	"scenes":[
		{
			"name":"Scene",
			"nodes":[
				0
			]
		}
	],
	"nodes":[
		{
			"mesh":0,
			"name":"prop_kekripukki"
		}
	],
	"materials":[
		{
			"doubleSided":true,
			"name":"BC_kekripukki",
			"pbrMetallicRoughness":{
				"baseColorTexture":{
					"index":0
				},
				"metallicFactor":0,
				"roughnessFactor":0.5
			}
		}
	],
	"meshes":[
		{
			"name":"Plane",
			"primitives":[
				{
					"attributes":{
						"POSITION":0,
						"TEXCOORD_0":1,
						"NORMAL":2
					},
					"indices":3,
					"material":0
				}
			]
		}
	],
	"textures":[
		{
			"sampler":0,
			"source":0
		}
	],
	"images":[
		{
			"bufferView":4,
			"mimeType":"image/png",
			"name":"BC_kekrigoat"
		}
	],
	"accessors":[
		{
			"bufferView":0,
			"componentType":5126,
			"count":1188,
			"max":[
				1.7229795455932617,
				8.234375,
				4.665069580078125
			],
			"min":[
				-1.7229795455932617,
				-0.1783144474029541,
				-4.389657020568848
			],
			"type":"VEC3"
		},
		{
			"bufferView":1,
			"componentType":5126,
			"count":1188,
			"type":"VEC2"
		},
		{
			"bufferView":2,
			"componentType":5126,
			"count":1188,
			"type":"VEC3"
		},
		{
			"bufferView":3,
			"componentType":5123,
			"count":3030,
			"type":"SCALAR"
		}
	],
	"bufferViews":[
		{
			"buffer":0,
			"byteLength":14256,
			"byteOffset":0,
			"target":34962
		},
		{
			"buffer":0,
			"byteLength":9504,
			"byteOffset":14256,
			"target":34962
		},
		{
			"buffer":0,
			"byteLength":14256,
			"byteOffset":23760,
			"target":34962
		},
		{
			"buffer":0,
			"byteLength":6060,
			"byteOffset":38016,
			"target":34963
		},
		{
			"buffer":0,
			"byteLength":37176,
			"byteOffset":44076
		}
	],
	"samplers":[
		{
			"magFilter":9729,
			"minFilter":9987
		}
	],
	"buffers":[
		{
			"byteLength":81252,
			"uri":"data:application/octet-stream;base64,"
		}
	]
}
